<?xml version="1.0" encoding="UTF-8"?>
<svg id="Layer_1" xmlns="http://www.w3.org/2000/svg" version="1.1" xmlns:xlink="http://www.w3.org/1999/xlink" viewBox="0 0 283.46 283.46">
  <!-- Generator: Adobe Illustrator 29.5.1, SVG Export Plug-In . SVG Version: 2.1.0 Build 141)  -->
  <defs>
    <style>
      .st0 {
        fill: #00aeef;
      }

      .st0, .st1, .st2, .st3, .st4, .st5, .st6, .st7, .st8, .st9 {
        stroke: #231f20;
        stroke-miterlimit: 10;
      }

      .st1 {
        fill: #fff;
      }

      .st2 {
        fill: #231f20;
      }

      .st3 {
        fill: url(#radial-gradient1);
      }

      .st4 {
        fill: url(#radial-gradient4);
      }

      .st5 {
        fill: none;
      }

      .st6 {
        fill: #ed1c24;
      }

      .st7 {
        fill: url(#radial-gradient);
      }

      .st8 {
        fill: url(#radial-gradient3);
      }

      .st9 {
        fill: url(#radial-gradient2);
      }
    </style>
    <radialGradient id="radial-gradient" cx="86.29" cy="126.38" fx="86.29" fy="126.38" r="6.84" gradientUnits="userSpaceOnUse">
      <stop offset="0" stop-color="#fff"/>
      <stop offset=".9" stop-color="#231f20"/>
    </radialGradient>
    <radialGradient id="radial-gradient1" cx="88.67" cy="154.88" fx="88.67" fy="154.88" r="15.57" gradientUnits="userSpaceOnUse">
      <stop offset="0" stop-color="#fff"/>
      <stop offset=".9" stop-color="#231f20"/>
    </radialGradient>
    <radialGradient id="radial-gradient2" cx="122.72" cy="186.98" fx="122.72" fy="186.98" r="6.02" gradientTransform="translate(242.1 -2.15) rotate(65.54)" gradientUnits="userSpaceOnUse">
      <stop offset=".2" stop-color="#fff"/>
      <stop offset=".82" stop-color="#231f20"/>
    </radialGradient>
    <radialGradient id="radial-gradient3" cx="-121.79" cy="143.48" fx="-121.79" fy="143.48" r="6.84" gradientTransform="translate(101.61) rotate(-180) scale(1 -1)" xlink:href="#radial-gradient1"/>
    <radialGradient id="radial-gradient4" cx="-119.41" cy="171.98" fx="-119.41" fy="171.98" r="15.57" gradientTransform="translate(101.61) rotate(-180) scale(1 -1)" xlink:href="#radial-gradient1"/>
  </defs>
  <rect class="st1" x="53.72" y="154.82" width="194.2" height="72.62" transform="translate(49.44 -30.23) rotate(13.67)"/>
  <path class="st1" d="M-35.5,59.33"/>
  <polygon class="st1" points="60.33 106.02 69.83 103.94 107.67 104.98 108.25 172.44 70.17 175.94 60.83 170.44 60.33 106.02"/>
  <line class="st5" x1="69.67" y1="104" x2="70" y2="176"/>
  <rect class="st5" x="77.42" y="107.34" width="27.17" height="29.25" rx="2.67" ry="2.67"/>
  <g>
    <ellipse class="st5" cx="86.05" cy="113.92" rx="3.54" ry="2.58"/>
    <circle class="st5" cx="86.05" cy="113.92" r="1.78"/>
  </g>
  <ellipse class="st7" cx="86.29" cy="126.38" rx="6.54" ry="7.12"/>
  <circle class="st5" cx="98.02" cy="129.94" r="2.44"/>
  <ellipse class="st3" cx="88.67" cy="154.88" rx="15.08" ry="16.04"/>
  <ellipse class="st5" cx="97.25" cy="117.57" rx="4.42" ry="8.02"/>
  <g>
    <polygon class="st0" points="198.4 150.02 112.08 150.02 112.08 94.42 196.73 89.62 198.4 150.02"/>
    <polygon class="st2" points="132.72 166.08 163.89 167.25 176.64 163.83 142.22 162.21 132.72 166.08"/>
    <rect class="st2" x="153.81" y="150.67" width="5.92" height="12.8"/>
  </g>
  <g>
    <ellipse class="st2" cx="119.48" cy="208.88" rx="11.3" ry="7.06" transform="translate(-28.88 19.42) rotate(-8.29)"/>
    <ellipse class="st2" cx="119.7" cy="209.42" rx="8.2" ry="4.1" transform="translate(-20.4 13.06) rotate(-5.76)"/>
  </g>
  <ellipse class="st2" cx="123.31" cy="187.35" rx="7.54" ry="11.6" transform="translate(-100.94 191.74) rotate(-57.77)"/>
  <ellipse class="st9" cx="122.72" cy="186.98" rx="4.17" ry="7.42" transform="translate(-98.3 221.26) rotate(-65.54)"/>
  <path class="st2" d="M125.58,201.67s1.92-.57,0-1.53c0,0-9.25-4.05-14.17,1.95,0,0-3,1.92-9.25-.58,0,0-9.77-8.46-9.83-8.61h-.67s-3.08-9.96,6.75-11.84l.92,1.19s5.97-1.85,10.4,0l1.1-1.19h.58l-.58,1.78,1,.67s4.5-4.83,5.67-5.17l-1.5-1.25s-.67-2-3.17-1.58l-12.37-1.92-.71.58s-20.8,1.54-9.75,19.17l-2.75,6.17,2.83,3.29,8.33,5.55,1.08-1.67v2.42s.58,1.67,2.67,1.42c0,0,5.64-.75,7.57,3.08l3.98,2.47.87-1.38s-4.03-.83-4.85-3.25,3.93-10.67,15.26-8.58l.58-1.17Z"/>
  <path class="st2" d="M86.72,199.17s-5.42-8.78-2.05-14.4l2.09-.76s.32,8.08,3.24,9.33l-3.28,5.83Z"/>
  <g>
    <g>
      <polygon class="st1" points="249.35 123.12 239.85 121.04 202.02 122.08 201.44 189.54 239.52 193.04 248.85 187.54 249.35 123.12"/>
      <rect class="st5" x="205.1" y="124.44" width="27.17" height="29.25" rx="2.67" ry="2.67" transform="translate(437.37 278.12) rotate(-180)"/>
      <ellipse class="st5" cx="223.63" cy="131.02" rx="3.54" ry="2.58"/>
      <circle class="st5" cx="223.63" cy="131.02" r="1.78"/>
      <ellipse class="st8" cx="223.39" cy="143.48" rx="6.54" ry="7.12"/>
      <circle class="st5" cx="211.67" cy="147.04" r="2.44"/>
      <ellipse class="st4" cx="221.02" cy="171.98" rx="15.08" ry="16.04"/>
      <ellipse class="st5" cx="212.44" cy="134.66" rx="4.42" ry="8.02"/>
    </g>
    <line class="st5" x1="240.11" y1="121.04" x2="239.78" y2="193.04"/>
  </g>
  <path class="st2" d="M176.22,182.22s1.83,3.78,1.72,4.39,6.5-.06,1.17,5.61l-.11,3.83-1.17,1.61,8.22,1.83s9.67-4.7,3.28-12.52l-13.11-4.76Z"/>
  <ellipse class="st6" cx="179.06" cy="189.59" rx="1.56" ry="2.24"/>
  <path class="st2" d="M178.11,187.35l-1.22-.37s-3.33,3.85-.89,4.85,1.5-.28,1.5-.28c0,0-.92-4.01.61-4.2Z"/>
  <path class="st2" d="M176.65,182.46s-3.72-3.15-4.51-2.43c0,0,3.59,2.39,3.47,8.99,0,0-.26,9.61-5.67,10.97s-4.75-1.14-4.75-1.14l-1.81-2.67,2.97,12.47,2.74,1-.18,14.74s-1.77,1.07-1.46,1.72-.67,3.29.3,4.15,1.71.86,1.71.86l.48,51.73h3.24l-.06-52.01,1.4-.5-.06-4.94-1.16-.57.06-15.45,2.5-.07,3.11-6.44.97-7.09"/>
  <path class="st5" d="M174.53,239.98c-.4-.45-.48-1.11-.4-1.71s.27-1.17.37-1.77c.22-1.32.17-2.31-1.27-2.45-.07-1.87-.14-3.74-.22-5.61,0-.09-.39-8.57-.39-8.57l1.56-.38v-2.28s-.39-3.56-1.17-2.83c-.78.72-.63-7.97-.63-7.97"/>
  <path class="st2" d="M170.33,180.17l-16.89-3.39s4.97,10.61-2.63,12.28l-1.76.54,18.5,5.74s1.81-.78,2.78-.78,4.67-4.28,3.44-5.83c0,0-.99-6.08-1.11-6.11l-2.61-2.69"/>
  <path class="st2" d="M155.15,182.55c-.56,3.85-3.15,7.05-7.05,7.05s-7.05-3.15-7.05-7.05,3.21-6.39,7.05-7.05c4.86-.83,7.7,2.59,7.05,7.05Z"/>
  <polygon class="st5" points="58.56 282.83 48.11 282.83 48.11 203.89 60.02 206.42 58.56 282.83"/>
  <polygon class="st5" points="237.49 283.46 227.05 283.46 227.05 247.6 236.77 249.15 237.49 283.46"/>
</svg>