<?xml version="1.0" encoding="UTF-8"?>
<svg id="Layer_1" xmlns="http://www.w3.org/2000/svg" version="1.1" viewBox="0 0 400 200">
  <!-- Generator: Adobe Illustrator 29.5.1, SVG Export Plug-In . SVG Version: 2.1.0 Build 141)  -->
  <defs>
    <style>
      .st0 {
        fill: #231f20;
      }

      .st1 {
        fill: none;
      }

      .st2 {
        fill: #5eaf4f;
      }

      .st2, .st3, .st4, .st5 {
        stroke: #231f20;
        stroke-miterlimit: 10;
      }

      .st6, .st4 {
        fill: #6c53a2;
      }

      .st3 {
        fill: #9d9d36;
      }

      .st5 {
        fill: #9e4a29;
      }

      .st7 {
        fill: #fff200;
      }
    </style>
  </defs>
  <rect class="st2" x="144.07" y="18.11" width="73.64" height="73.64"/>
  <rect class="st5" x="217.71" y="18.11" width="73.64" height="73.64"/>
  <rect class="st3" x="144.07" y="91.75" width="73.64" height="73.64"/>
  <rect class="st4" x="217.71" y="91.75" width="73.64" height="73.64"/>
  <g>
    <rect class="st1" x="167.18" y="44.93" width="29.17" height="13.38"/>
    <path class="st0" d="M170.67,53.4h-3.36v-2.03h.65l1.59-4.41h-.68v-2.03h6.09v2.03h-.68l1.62,4.41h.62v2.03h-4.42v-1.86h.74l-.32-1.07h-2.17l-.37,1.07h.69v1.86ZM171.47,47.08l-.8,2.34h1.52l-.72-2.34Z"/>
    <path class="st0" d="M179.54,49.14l-2.4-.24c.26-.58.69-.99,1.28-1.22.58-.24,1.44-.35,2.57-.35.42,0,.79.01,1.12.04.33.03.63.07.89.12.54.1.94.26,1.2.47.26.21.44.45.54.69.11.26.16.65.16,1.19v1.7h.75v1.86h-3.82v-.4c-.53.34-1.23.51-2.12.51-.83,0-1.46-.18-1.88-.55-.43-.37-.64-.8-.64-1.3,0-.55.26-1,.79-1.36.52-.35,1.2-.53,2.03-.53.76,0,1.37.1,1.82.3v-.18c0-.37-.03-.62-.08-.77-.06-.15-.18-.29-.38-.4-.2-.11-.44-.16-.71-.16-.49,0-.87.19-1.13.57ZM181.84,51.89v-1.08c-.27-.15-.56-.22-.86-.22-.27,0-.48.07-.64.22-.16.15-.24.34-.24.57s.08.43.24.58c.17.15.36.23.57.23.38,0,.69-.1.93-.31Z"/>
  </g>
  <g>
    <rect class="st1" x="229.52" y="50.42" width="53.86" height="10.97"/>
    <path class="st0" d="M230.27,56.86l2.12-.19c.19.46.54.69,1.02.69.81,0,1.23-.66,1.27-1.97-.5.35-1.08.52-1.75.52-.76,0-1.4-.25-1.93-.75-.54-.51-.8-1.15-.8-1.94,0-.93.33-1.65,1-2.19.66-.53,1.44-.79,2.33-.79,1.11,0,2.03.38,2.76,1.13.73.76,1.09,1.87,1.09,3.32,0,1.27-.33,2.3-1,3.09-.66.78-1.64,1.17-2.95,1.17-.83,0-1.52-.17-2.08-.52-.56-.35-.92-.88-1.08-1.58ZM234.72,53.86c0-1.28-.38-1.92-1.13-1.92-.58,0-.88.37-.88,1.11,0,.38.09.67.26.86.17.21.4.31.68.31.35,0,.71-.12,1.07-.37Z"/>
    <path class="st0" d="M246.74,58.89h-8.08v-2.03h.66v-4.41h-.67v-2.03h8.09v2.71h-2.22v-.68h-1.92v1.3h1.67v1.72h-1.67v1.39h1.92v-.68h2.22v2.71Z"/>
    <path class="st0" d="M255.29,58.89h-4.43v-1.72h1.02v-1.07h-3.57l-.48-1.77,3.96-4.08h2.62v4.35h.87v1.5h-.87v1.07h.87v1.72ZM249.6,54.59h2.29v-2.31l-2.29,2.31Z"/>
    <path class="st0" d="M259.52,58.89h-3.36v-2.03h.65l1.59-4.41h-.68v-2.03h6.09v2.03h-.68l1.62,4.41h.62v2.03h-4.42v-1.86h.74l-.32-1.07h-2.17l-.37,1.07h.69v1.86ZM260.32,52.57l-.8,2.34h1.52l-.72-2.34Z"/>
    <path class="st0" d="M271.36,56.24h1.75l-.07,2.65h-6.74c0-.17-.01-.26-.01-.26,0-.79.17-1.49.51-2.12.17-.32.42-.64.72-.96.31-.32.68-.63,1.13-.96.75-.55,1.23-.95,1.44-1.19.21-.25.32-.51.32-.76s-.07-.45-.22-.61-.37-.24-.66-.24c-.63,0-.94.4-.94,1.19l-2.18-.07c.04-.97.37-1.66.97-2.06.6-.4,1.37-.6,2.29-.6,1.01,0,1.82.23,2.45.69.62.47.94,1.08.94,1.83,0,.48-.16.93-.48,1.34-.32.41-.94.85-1.86,1.31-.74.37-1.23.66-1.49.85-.25.2-.45.42-.58.68h2.67l.03-.71Z"/>
    <path class="st0" d="M274.83,56.86l2.12-.19c.19.46.54.69,1.02.69.81,0,1.23-.66,1.27-1.97-.5.35-1.08.52-1.75.52-.76,0-1.4-.25-1.93-.75-.54-.51-.8-1.15-.8-1.94,0-.93.33-1.65,1-2.19.66-.53,1.44-.79,2.33-.79,1.11,0,2.03.38,2.76,1.13.73.76,1.09,1.87,1.09,3.32,0,1.27-.33,2.3-1,3.09-.66.78-1.64,1.17-2.95,1.17-.83,0-1.52-.17-2.08-.52-.56-.35-.92-.88-1.08-1.58ZM279.29,53.86c0-1.28-.38-1.92-1.13-1.92-.58,0-.88.37-.88,1.11,0,.38.09.67.26.86.17.21.4.31.68.31.35,0,.71-.12,1.07-.37Z"/>
  </g>
  <g>
    <rect class="st1" x="151.87" y="119.61" width="70.4" height="28.45"/>
    <path class="st0" d="M152.62,126.06l2.12-.19c.19.46.54.69,1.02.69.81,0,1.23-.66,1.27-1.97-.5.35-1.08.52-1.75.52-.76,0-1.4-.25-1.93-.75-.54-.51-.8-1.15-.8-1.94,0-.93.33-1.65,1-2.19.66-.53,1.44-.79,2.33-.79,1.11,0,2.03.38,2.76,1.13.73.76,1.09,1.87,1.09,3.32,0,1.27-.33,2.3-1,3.09-.66.78-1.64,1.17-2.95,1.17-.83,0-1.52-.17-2.08-.52-.56-.35-.92-.88-1.08-1.58ZM157.07,123.06c0-1.28-.38-1.92-1.13-1.92-.58,0-.88.37-.88,1.11,0,.38.09.67.26.86.17.21.4.31.68.31.35,0,.71-.12,1.07-.37Z"/>
    <path class="st0" d="M165.03,128.08h-3.94v-2.03h.66v-4.41h-.66v-2.03h4.05c.93,0,1.68.06,2.26.17.59.11,1.14.35,1.66.7.52.36.92.84,1.22,1.45.15.29.26.6.33.94s.12.68.12,1.05c0,.74-.16,1.41-.47,2.01-.31.6-.7,1.06-1.18,1.38-.46.32-.97.53-1.52.63-.55.1-1.4.15-2.54.15ZM165.03,121.64v4.41h.31c.77,0,1.27-.21,1.5-.62.23-.41.34-.93.34-1.55,0-.37-.05-.74-.15-1.11-.1-.37-.28-.65-.54-.85-.25-.2-.7-.3-1.35-.3h-.12Z"/>
    <path class="st0" d="M172.11,126.06l2.12-.19c.19.46.54.69,1.02.69.81,0,1.23-.66,1.27-1.97-.5.35-1.08.52-1.75.52-.76,0-1.4-.25-1.93-.75-.54-.51-.8-1.15-.8-1.94,0-.93.33-1.65,1-2.19.66-.53,1.44-.79,2.33-.79,1.11,0,2.03.38,2.76,1.13.73.76,1.09,1.87,1.09,3.32,0,1.27-.33,2.3-1,3.09-.66.78-1.64,1.17-2.95,1.17-.83,0-1.52-.17-2.08-.52-.56-.35-.92-.88-1.08-1.58ZM176.56,123.06c0-1.28-.38-1.92-1.13-1.92-.58,0-.88.37-.88,1.11,0,.38.09.67.26.86.17.21.4.31.68.31.35,0,.71-.12,1.07-.37Z"/>
    <path class="st0" d="M184.52,128.08h-3.94v-2.03h.66v-4.41h-.66v-2.03h4.05c.93,0,1.68.06,2.26.17.59.11,1.14.35,1.66.7.52.36.92.84,1.22,1.45.15.29.26.6.33.94s.12.68.12,1.05c0,.74-.16,1.41-.47,2.01-.31.6-.7,1.06-1.18,1.38-.46.32-.97.53-1.52.63-.55.1-1.4.15-2.54.15ZM184.52,121.64v4.41h.31c.77,0,1.27-.21,1.5-.62.23-.41.34-.93.34-1.55,0-.37-.05-.74-.15-1.11-.1-.37-.28-.65-.54-.85-.25-.2-.7-.3-1.35-.3h-.12Z"/>
    <path class="st0" d="M191.41,125.21l2.19-.16c.04.9.46,1.35,1.26,1.35.35,0,.61-.1.78-.29.17-.19.25-.42.25-.69,0-.69-.46-1.05-1.38-1.08v-1.38c.28,0,.55-.08.8-.25.25-.16.37-.4.37-.72,0-.26-.08-.47-.24-.63-.17-.15-.39-.23-.66-.23-.58,0-.89.32-.94.96l-2.29-.12c.05-.84.38-1.48.99-1.89.61-.42,1.43-.63,2.48-.63,1.12,0,1.95.23,2.51.68.56.46.83,1.02.83,1.69,0,.4-.12.76-.35,1.07-.24.32-.55.54-.96.66.51.11.9.34,1.19.7s.43.79.43,1.3c0,.81-.34,1.45-1.01,1.92s-1.56.7-2.66.7-1.98-.24-2.61-.72c-.62-.48-.95-1.22-.98-2.23Z"/>
    <path class="st0" d="M207.26,121.55l-2.11.19c-.2-.46-.55-.69-1.03-.69-.8,0-1.23.66-1.27,1.97.49-.35,1.08-.52,1.75-.52.75,0,1.4.25,1.94.75.53.51.8,1.15.8,1.94,0,.9-.33,1.62-.97,2.16-.65.54-1.43.82-2.34.82-1.12,0-2.04-.38-2.76-1.14-.73-.75-1.1-1.86-1.1-3.31,0-1.28.33-2.31,1-3.1.66-.78,1.64-1.17,2.95-1.17.85,0,1.55.18,2.1.54.55.36.9.88,1.05,1.57ZM202.81,124.54c0,1.28.37,1.92,1.12,1.92.58,0,.88-.37.88-1.11,0-.35-.08-.64-.25-.85-.16-.21-.39-.32-.69-.32-.34,0-.7.12-1.06.36Z"/>
  </g>
  <polygon class="st7" points="253.33 106.23 257.4 118.75 270.57 118.75 259.91 126.5 263.98 139.02 253.33 131.28 242.67 139.02 246.74 126.5 236.08 118.75 249.26 118.75 253.33 106.23"/>
  <ellipse class="st6" cx="71.02" cy="83.02" rx="67.03" ry="61.47"/>
  <polygon class="st7" points="70.02 33.3 79.86 63.58 111.71 63.58 85.94 82.3 95.78 112.59 70.02 93.87 44.26 112.59 54.1 82.3 28.33 63.58 60.18 63.58 70.02 33.3"/>
  <g>
    <rect class="st1" x="30.65" y="115.3" width="78.75" height="5.92"/>
    <path class="st0" d="M34.06,116.66l-.62.11c.03-.12.04-.23.04-.31,0-.54-.33-.8-.98-.8-.51,0-.77.18-.77.55,0,.28.29.51.86.71,1.11.38,1.66.95,1.66,1.69,0,.44-.16.79-.47,1.05-.31.26-.73.4-1.24.4-1.14,0-1.71-.44-1.71-1.33,0-.07,0-.16.02-.27l.65-.14c-.05.2-.07.37-.07.51,0,.57.33.86.98.86.53,0,.79-.21.79-.62,0-.31-.31-.58-.94-.81-.91-.33-1.36-.87-1.36-1.6,0-.42.15-.75.46-1,.3-.25.7-.38,1.2-.38,1.01,0,1.52.46,1.52,1.37Z"/>
    <path class="st0" d="M36.63,116.59v.38h-.55v2.41c0,.15.05.23.15.23.07,0,.11-.05.12-.15l.35.03c-.1.36-.41.53-.93.53-.62,0-.93-.26-.93-.79v-2.26h-.41v-.38h.41v-.6c.43-.12.84-.29,1.23-.51v1.11h.55Z"/>
    <path class="st0" d="M40.46,119.87c-.3.12-.6.18-.88.18-.42,0-.69-.13-.78-.4-.21.28-.5.41-.89.41-.72,0-1.08-.33-1.08-1,0-.51.33-.86.99-1.07.6-.19.91-.42.91-.68,0-.35-.17-.52-.52-.52-.4,0-.6.17-.6.51,0,.11.03.25.09.42l-.61-.12c-.02-.11-.02-.21-.02-.3,0-.54.49-.81,1.48-.81s1.41.25,1.41.76v2.07c0,.21.07.32.21.32.04,0,.11-.02.19-.07l.12.31ZM38.72,117.94c-.08.09-.17.16-.27.22-.25.15-.38.4-.38.75,0,.45.09.68.26.68.26,0,.38-.22.38-.67v-.98Z"/>
    <path class="st0" d="M43.14,117.82h-.85c.03-.13.05-.23.08-.29.03-.09.05-.18.05-.25,0-.14-.05-.22-.16-.22-.08,0-.16.1-.23.29-.07.19-.11.39-.11.6v2.04h-1.23v-3.41h.24c.28,0,.62-.03.99-.09v.56c.2-.37.45-.56.74-.56.4,0,.59.22.59.66,0,.12-.02.25-.06.4-.01.06-.03.15-.06.27Z"/>
    <path class="st0" d="M44.88,115.3v4.68h-1.23v-4.62c.34,0,.75-.02,1.23-.07Z"/>
    <path class="st0" d="M45.57,119.99v-3.41c.38,0,.8-.03,1.23-.09v3.5h-1.23ZM46.19,115.26c.38,0,.58.15.58.45s-.19.45-.58.45-.57-.15-.57-.45.19-.45.57-.45Z"/>
    <path class="st0" d="M49.72,116.61c.58.25.86.6.86,1.07,0,.31-.14.57-.43.79-.29.22-.64.33-1.04.33-.16,0-.37-.02-.64-.06-.16.09-.23.18-.23.27,0,.12.1.19.29.19.05,0,.15,0,.3-.01.38-.02.66-.04.83-.04.82,0,1.23.31,1.23.93,0,.75-.68,1.13-2.04,1.13-1.01,0-1.52-.21-1.52-.64,0-.25.21-.41.62-.5-.44-.12-.66-.31-.66-.57,0-.33.26-.62.78-.88-.46-.18-.69-.5-.69-.94,0-.34.14-.62.42-.85s.62-.34,1.03-.34c.14,0,.32.01.55.04-.01-.08-.02-.14-.02-.19,0-.45.23-.67.7-.67.37,0,.56.16.56.47,0,.24-.11.36-.33.36-.07,0-.16-.02-.26-.07-.06-.03-.11-.05-.14-.05-.11,0-.16.07-.16.23ZM48.93,120.21c-.57,0-.86.11-.86.33s.28.33.84.33c.65,0,.97-.12.97-.37,0-.2-.31-.29-.94-.29ZM48.96,116.82c-.23,0-.34.29-.34.86,0,.53.12.79.36.79.22,0,.33-.23.33-.70,0-.63-.11-.95-.34-.95Z"/>
    <path class="st0" d="M51.2,119.99v-4.62c.37,0,.78-.02,1.23-.07v1.86c.27-.45.64-.67,1.13-.67.57,0,.86.26.86.77v2.73h-1.23v-2.59c0-.2-.07-.29-.2-.29s-.26.13-.38.38c-.12.25-.18.52-.18.81v1.7h-1.23Z"/>
    <path class="st0" d="M56.95,116.59v.38h-.55v2.41c0,.15.05.23.15.23.07,0,.11-.05.12-.15l.35.03c-.1.36-.41.53-.93.53-.62,0-.93-.26-.93-.79v-2.26h-.41v-.38h.41v-.6c.43-.12.84-.29,1.23-.51v1.11h.55Z"/>
    <path class="st0" d="M62.5,116.66l-.62.11c.03-.12.04-.23.04-.31,0-.54-.33-.8-.98-.8-.51,0-.77.18-.77.55,0,.28.29.51.86.71,1.11.38,1.66.95,1.66,1.69,0,.44-.16.79-.47,1.05-.31.26-.73.4-1.24.4-1.14,0-1.71-.44-1.71-1.33,0-.07,0-.16.02-.27l.65-.14c-.05.2-.07.37-.07.51,0,.57.33.86.98.86.53,0,.79-.21.79-.62,0-.31-.31-.58-.94-.81-.91-.33-1.36-.87-1.36-1.6,0-.42.15-.75.46-1,.3-.25.7-.38,1.2-.38,1.01,0,1.52.46,1.52,1.37Z"/>
    <path class="st0" d="M64.76,116.49c1.13,0,1.69.6,1.69,1.79s-.56,1.79-1.69,1.79-1.69-.59-1.69-1.79.56-1.79,1.69-1.79ZM64.76,116.79c-.27,0-.41.5-.41,1.49s.14,1.48.41,1.48.41-.5.41-1.48-.14-1.49-.41-1.49Z"/>
    <path class="st0" d="M68.2,115.3v4.68h-1.23v-4.62c.34,0,.75-.02,1.23-.07Z"/>
    <path class="st0" d="M72.11,116.49v3.5h-1.24v-.54c-.28.41-.65.61-1.1.61-.6,0-.9-.29-.9-.88v-2.59c.41-.02.83-.05,1.23-.09v2.65c0,.23.07.34.21.34.37,0,.55-.4.55-1.19v-1.72c.41-.02.82-.05,1.24-.09Z"/>
    <path class="st0" d="M74.65,116.59v.38h-.55v2.41c0,.15.05.23.15.23.07,0,.11-.05.12-.15l.35.03c-.1.36-.41.53-.93.53-.62,0-.93-.26-.93-.79v-2.26h-.41v-.38h.41v-.6c.43-.12.84-.29,1.23-.51v1.11h.55Z"/>
    <path class="st0" d="M75.06,119.99v-3.41c.38,0,.8-.03,1.23-.09v3.5h-1.23ZM75.68,115.26c.38,0,.58.15.58.45s-.19.45-.58.45-.57-.15-.57-.45.19-.45.57-.45Z"/>
    <path class="st0" d="M78.52,116.49c1.13,0,1.69.6,1.69,1.79s-.56,1.79-1.69,1.79-1.69-.59-1.69-1.79.56-1.79,1.69-1.79ZM78.52,116.79c-.27,0-.41.5-.41,1.49s.14,1.48.41,1.48.41-.5.41-1.48-.14-1.49-.41-1.49Z"/>
    <path class="st0" d="M83.96,119.99h-1.23v-2.5c0-.25-.07-.38-.21-.38s-.27.1-.38.3c-.11.2-.16.44-.16.71v1.87h-1.23v-3.42c.42,0,.83-.03,1.23-.08v.64c.31-.42.68-.64,1.12-.64.57,0,.86.29.86.87v2.62Z"/>
    <path class="st0" d="M87.31,117.45l-.6.1c0-.51-.24-.76-.71-.76-.29,0-.44.12-.44.36,0,.18.25.37.75.57.77.31,1.15.71,1.15,1.19,0,.77-.49,1.15-1.46,1.15-1.03,0-1.55-.38-1.55-1.15l.64-.13c0,.07-.01.14-.01.21,0,.2.08.37.25.52.17.15.36.22.59.22.3,0,.45-.13.45-.38,0-.17-.24-.36-.72-.56-.72-.31-1.09-.71-1.09-1.2,0-.32.14-.59.42-.79.28-.21.63-.31,1.07-.31.77,0,1.2.32,1.27.96Z"/>
    <path class="st0" d="M91.89,117.5h1.9v2.49h-.43l-.15-.32c-.37.26-.77.4-1.18.4-.68,0-1.21-.21-1.59-.61s-.57-.99-.57-1.73.2-1.31.6-1.76c.4-.45.92-.67,1.57-.67.85,0,1.37.44,1.56,1.31l-.63.29v-.36c-.05-.54-.3-.82-.76-.82-.34,0-.57.14-.69.43-.12.29-.19.83-.19,1.61,0,.74.05,1.23.15,1.5.1.26.29.4.57.4.33,0,.5-.19.5-.55v-1.14h-.67v-.46Z"/>
    <path class="st0" d="M96.85,117.82h-.85c.03-.13.05-.23.08-.29.03-.09.05-.18.05-.25,0-.14-.05-.22-.16-.22-.08,0-.16.1-.23.29-.07.19-.11.39-.11.6v2.04h-1.23v-3.41h.24c.28,0,.62-.03.99-.09v.56c.2-.37.45-.56.74-.56.4,0,.59.22.59.66,0,.12-.02.25-.06.4-.01.06-.03.15-.06.27Z"/>
    <path class="st0" d="M98.89,116.49c1.13,0,1.69.6,1.69,1.79s-.56,1.79-1.69,1.79-1.69-.59-1.69-1.79.56-1.79,1.69-1.79ZM98.89,116.79c-.27,0-.41.5-.41,1.49s.14,1.48.41,1.48.41-.5.41-1.48-.14-1.49-.41-1.49Z"/>
    <path class="st0" d="M104.35,116.49v3.5h-1.24v-.54c-.28.41-.65.61-1.1.61-.6,0-.9-.29-.9-.88v-2.59c.41-.02.83-.05,1.23-.09v2.65c0,.23.07.34.21.34.37,0,.55-.4.55-1.19v-1.72c.41-.02.82-.05,1.24-.09Z"/>
    <path class="st0" d="M105.03,121.14v-4.56c.35,0,.76-.03,1.23-.09v.51c.23-.34.51-.52.85-.52.35,0,.64.16.85.49.21.32.32.76.32,1.3,0,1.2-.4,1.8-1.2,1.8-.33,0-.6-.12-.81-.37v1.43h-1.23ZM106.66,116.99c-.27,0-.41.42-.41,1.27s.13,1.32.39,1.32c.23,0,.35-.44.35-1.32s-.11-1.27-.33-1.27Z"/>
  </g>
  <rect class="st6" x="294.67" y="53.51" width="101.78" height="48.31"/>
  <polygon class="st7" points="319.72 78.11 312.19 72.8 304.81 78.33 307.53 69.52 299.99 64.22 309.21 64.08 311.92 55.27 314.9 63.99 324.12 63.86 316.74 69.38 319.72 78.11"/>
  <g>
    <rect class="st1" x="329.87" y="67.96" width="50.89" height="12.48"/>
    <path class="st0" d="M346.56,69.18l-.56.1c.02-.11.04-.2.04-.28,0-.48-.29-.72-.88-.72-.46,0-.69.17-.69.5,0,.25.26.46.77.64,1,.34,1.49.85,1.49,1.52,0,.39-.14.71-.42.95s-.65.36-1.11.36c-1.03,0-1.54-.4-1.54-1.19,0-.06,0-.14.02-.24l.58-.13c-.04.18-.07.33-.07.46,0,.51.29.77.88.77.47,0,.71-.19.71-.56,0-.28-.28-.52-.85-.73-.82-.3-1.22-.78-1.22-1.44,0-.37.14-.67.41-.9.27-.23.63-.34,1.07-.34.91,0,1.37.41,1.37,1.23Z"/>
    <path class="st0" d="M348.87,69.12v.34h-.49v2.16c0,.14.04.2.13.2.06,0,.1-.05.11-.14l.32.03c-.09.32-.36.48-.83.48-.56,0-.83-.24-.83-.71v-2.03h-.37v-.34h.37v-.54c.38-.1.75-.26,1.11-.46v1h.49Z"/>
    <path class="st0" d="M352.3,72.06c-.27.11-.54.16-.79.16-.38,0-.62-.12-.7-.35-.18.25-.45.37-.79.37-.65,0-.97-.3-.97-.9,0-.46.29-.77.89-.96.54-.17.81-.37.81-.61,0-.31-.16-.47-.47-.47-.36,0-.54.15-.54.46,0,.1.03.22.08.38l-.55-.11c-.01-.09-.02-.18-.02-.27,0-.49.44-.73,1.33-.73s1.26.23,1.26.68v1.86c0,.19.06.29.18.29.04,0,.1-.02.17-.06l.11.28ZM350.74,70.33c-.07.08-.15.14-.24.2-.23.13-.34.36-.34.67,0,.4.08.61.24.61.23,0,.35-.2.35-.6v-.88Z"/>
    <path class="st0" d="M354.71,70.22h-.76c.03-.12.05-.21.07-.26.03-.08.04-.16.04-.22,0-.13-.05-.19-.14-.19-.07,0-.14.09-.2.26-.07.17-.1.35-.1.54v1.83h-1.11v-3.06h.22c.25,0,.55-.02.89-.08v.5c.18-.34.4-.5.66-.5.36,0,.53.2.53.59,0,.1-.02.22-.05.35-.01.05-.03.14-.06.25Z"/>
    <path class="st0" d="M356.26,67.96v4.2h-1.11v-4.14c.3,0,.67-.02,1.11-.06Z"/>
    <path class="st0" d="M356.88,72.17v-3.06c.35,0,.72-.03,1.11-.08v3.14h-1.11ZM357.44,67.92c.34,0,.52.13.52.4s-.17.4-.52.4-.52-.13-.52-.4.17-.4.52-.4Z"/>
    <path class="st0" d="M360.61,69.14c.52.22.77.54.77.96,0,.28-.13.51-.39.71s-.57.29-.94.29c-.14,0-.33-.02-.57-.05-.14.08-.21.16-.21.24,0,.11.09.17.26.17.04,0,.13,0,.27-.01.34-.02.59-.03.75-.03.74,0,1.11.28,1.11.84,0,.68-.61,1.01-1.83,1.01-.91,0-1.36-.19-1.36-.57,0-.22.18-.37.55-.45-.39-.1-.59-.27-.59-.51,0-.3.23-.56.7-.79-.41-.17-.62-.45-.62-.85,0-.3.12-.56.37-.76.25-.21.56-.31.93-.31.13,0,.29.01.5.04-.01-.07-.02-.13-.02-.17,0-.4.21-.6.63-.6.33,0,.5.14.5.42,0,.21-.1.32-.3.32-.07,0-.15-.02-.24-.07-.06-.03-.1-.04-.13-.05-.1,0-.14.06-.14.21ZM359.9,72.37c-.52,0-.77.1-.77.3s.25.3.75.3c.58,0,.87-.11.87-.33,0-.18-.28-.26-.85-.26ZM359.93,69.33c-.21,0-.31.26-.31.77,0,.47.11.71.32.71.2,0,.29-.21.29-.63,0-.57-.1-.85-.31-.85Z"/>
    <path class="st0" d="M361.94,72.17v-4.14c.33,0,.7-.02,1.11-.06v1.67c.24-.4.58-.6,1.01-.6.51,0,.77.23.77.69v2.45h-1.11v-2.32c0-.18-.06-.26-.18-.26s-.23.11-.34.34c-.1.23-.16.47-.16.73v1.52h-1.11Z"/>
    <path class="st0" d="M367.1,69.12v.34h-.49v2.16c0,.14.04.2.13.2.06,0,.1-.05.11-.14l.32.03c-.09.32-.36.48-.83.48-.56,0-.83-.24-.83-.71v-2.03h-.37v-.34h.37v-.54c.38-.1.75-.26,1.11-.46v1h.49Z"/>
    <path class="st0" d="M336.23,76.64l-.56.1c.02-.11.04-.2.04-.28,0-.48-.29-.72-.88-.72-.46,0-.69.17-.69.5,0,.25.26.46.77.64,1,.34,1.49.85,1.49,1.52,0,.39-.14.71-.42.95s-.65.36-1.11.36c-1.03,0-1.54-.4-1.54-1.19,0-.06,0-.14.02-.24l.58-.13c-.04.18-.07.33-.07.46,0,.51.29.77.88.77.47,0,.71-.19.71-.56,0-.28-.28-.52-.85-.73-.82-.3-1.22-.78-1.22-1.44,0-.37.14-.67.41-.9.27-.23.63-.34,1.07-.34.91,0,1.37.41,1.37,1.23Z"/>
    <path class="st0" d="M338.26,76.49c1.01,0,1.52.53,1.52,1.6s-.51,1.6-1.52,1.6-1.52-.53-1.52-1.6.51-1.6,1.52-1.6ZM338.26,76.76c-.25,0-.37.44-.37,1.33s.12,1.33.37,1.33.37-.44.37-1.33-.12-1.33-.37-1.33Z"/>
    <path class="st0" d="M341.35,75.42v4.2h-1.11v-4.14c.3,0,.67-.02,1.11-.06Z"/>
    <path class="st0" d="M344.86,76.49v3.14h-1.11v-.49c-.25.36-.58.55-.98.55-.54,0-.81-.26-.81-.79v-2.33c.37-.02.74-.04,1.11-.08v2.38c0,.21.06.31.19.31.33,0,.5-.36.5-1.07v-1.54c.37-.02.74-.04,1.11-.08Z"/>
    <path class="st0" d="M347.14,76.58v.34h-.49v2.16c0,.14.04.2.13.2.06,0,.1-.05.11-.14l.32.03c-.09.32-.36.48-.83.48-.56,0-.83-.24-.83-.71v-2.03h-.37v-.34h.37v-.54c.38-.1.75-.26,1.11-.46v1h.49Z"/>
    <path class="st0" d="M347.5,79.63v-3.06c.35,0,.72-.03,1.11-.08v3.14h-1.11ZM348.06,75.38c.34,0,.52.13.52.4s-.17.4-.52.4-.52-.13-.52-.4.17-.4.52-.4Z"/>
    <path class="st0" d="M350.61,76.49c1.01,0,1.52.53,1.52,1.6s-.51,1.6-1.52,1.6-1.52-.53-1.52-1.6.51-1.6,1.52-1.6ZM350.61,76.76c-.25,0-.37.44-.37,1.33s.12,1.33.37,1.33.37-.44.37-1.33-.12-1.33-.37-1.33Z"/>
    <path class="st0" d="M355.49,79.63h-1.11v-2.25c0-.23-.06-.34-.19-.34s-.24.09-.34.27c-.09.18-.14.4-.14.64v1.68h-1.11v-3.06c.38,0,.75-.03,1.11-.08v.57c.28-.38.61-.57,1.01-.57.51,0,.77.26.77.78v2.35Z"/>
    <path class="st0" d="M358.5,77.35l-.54.09c0-.46-.21-.69-.64-.69-.26,0-.39.11-.39.32,0,.16.22.33.67.51.69.28,1.03.64,1.03,1.07,0,.69-.44,1.03-1.31,1.03-.93,0-1.39-.34-1.39-1.03l.57-.12c0,.07-.01.13-.01.19,0,.18.08.33.22.46s.32.2.53.2c.27,0,.4-.11.4-.34,0-.15-.21-.32-.65-.5-.65-.28-.97-.64-.97-1.07,0-.29.12-.53.37-.71.25-.19.57-.28.96-.28.69,0,1.08.29,1.14.86Z"/>
    <path class="st0" d="M362.61,77.39h1.71v2.24h-.38l-.13-.29c-.33.24-.69.35-1.06.35-.61,0-1.09-.18-1.43-.55s-.51-.88-.51-1.55.18-1.17.54-1.58c.36-.4.83-.6,1.41-.6.76,0,1.23.39,1.4,1.17l-.56.26v-.32c-.05-.49-.27-.73-.69-.73-.3,0-.51.13-.62.39-.11.26-.17.74-.17,1.45,0,.66.04,1.11.13,1.34.09.24.26.35.51.35.3,0,.45-.17.45-.5v-1.02h-.6v-.42Z"/>
    <path class="st0" d="M367.06,77.68h-.76c.03-.12.05-.21.07-.26.03-.08.04-.16.04-.22,0-.13-.05-.19-.14-.19-.07,0-.14.09-.2.26-.07.17-.1.35-.1.54v1.83h-1.11v-3.06h.22c.25,0,.55-.02.89-.08v.5c.18-.34.4-.5.66-.5.36,0,.53.2.53.59,0,.1-.02.22-.05.35-.01.05-.03.14-.06.25Z"/>
    <path class="st0" d="M368.89,76.49c1.01,0,1.52.53,1.52,1.6s-.51,1.6-1.52,1.6-1.52-.53-1.52-1.6.51-1.6,1.52-1.6ZM368.89,76.76c-.25,0-.37.44-.37,1.33s.12,1.33.37,1.33.37-.44.37-1.33-.12-1.33-.37-1.33Z"/>
    <path class="st0" d="M373.78,76.49v3.14h-1.11v-.49c-.25.36-.58.55-.98.55-.54,0-.81-.26-.81-.79v-2.33c.37-.02.74-.04,1.11-.08v2.38c0,.21.06.31.19.31.33,0,.5-.36.5-1.07v-1.54c.37-.02.74-.04,1.11-.08Z"/>
    <path class="st0" d="M374.4,80.66v-4.09c.31,0,.68-.03,1.11-.08v.46c.21-.31.46-.46.76-.46.32,0,.57.15.76.44.19.29.29.68.29,1.17,0,1.08-.36,1.62-1.08,1.62-.3,0-.54-.11-.73-.33v1.29h-1.11ZM375.86,76.93c-.24,0-.37.38-.37,1.14s.12,1.19.35,1.19c.21,0,.32-.4.32-1.19s-.1-1.14-.3-1.14Z"/>
  </g>
</svg>